<?xml version="1.0" standalone="no"?>
<!DOCTYPE svg PUBLIC "-//W3C//DTD SVG 20010904//EN"
 "http://www.w3.org/TR/2001/REC-SVG-20010904/DTD/svg10.dtd">
<svg version="1.0" xmlns="http://www.w3.org/2000/svg"
 width="490.000000pt" height="286.000000pt" viewBox="0 0 490.000000 286.000000"
 preserveAspectRatio="xMidYMid meet">

<g transform="translate(0.000000,286.000000) scale(0.100000,-0.100000)"
fill="#000000" stroke="none">
<path d="M3036 2481 c-9 -33 -20 -61 -24 -61 -4 0 -13 -14 -21 -31 -8 -18 -23
-34 -33 -37 -13 -3 -16 -7 -8 -12 6 -4 14 -36 17 -71 7 -76 20 -101 38 -67 8
16 8 33 1 55 -8 28 -4 43 22 101 18 38 32 79 32 91 0 12 4 19 10 16 15 -9 12
38 -3 59 -12 17 -15 12 -31 -43z"/>
<path d="M2858 2333 c-19 -5 -25 -23 -9 -23 17 0 41 12 41 21 0 9 -4 10 -32 2z"/>
<path d="M3214 2268 c21 -35 20 -41 -2 -29 -13 7 -24 3 -46 -16 l-29 -24 37 6
c20 4 43 4 52 1 12 -5 10 -10 -13 -31 l-28 -25 28 10 c25 9 31 6 71 -36 26
-27 47 -41 51 -35 3 6 17 11 31 11 17 0 24 5 24 20 0 23 -43 55 -64 47 -16 -6
-56 19 -56 36 -1 7 -17 30 -37 52 -24 27 -30 31 -19 13z"/>
<path d="M3333 2236 c9 -7 17 -18 17 -25 0 -6 7 -11 15 -11 31 0 11 30 -30 43
-19 7 -19 6 -2 -7z"/>
<path d="M2675 2200 c3 -5 10 -10 16 -10 5 0 9 5 9 10 0 6 -7 10 -16 10 -8 0
-12 -4 -9 -10z"/>
<path d="M1986 2175 c-24 -24 -49 -78 -80 -170 -15 -44 -47 -120 -70 -170
-118 -245 -123 -265 -73 -281 12 -4 28 -15 35 -26 13 -17 38 -16 27 2 -3 4 7
11 20 14 14 4 23 11 20 16 -13 21 7 31 31 15 23 -15 25 -14 33 9 6 13 13 40
16 60 4 20 11 38 15 41 5 3 14 31 20 63 16 81 35 117 81 154 35 28 38 34 25
44 -22 15 -21 18 17 68 19 26 43 46 58 50 15 3 34 12 42 21 9 8 22 15 29 15 7
0 22 7 33 15 43 33 -28 61 -186 72 -63 4 -79 2 -93 -12z"/>
<path d="M2750 2162 c0 -4 18 -26 40 -47 34 -33 42 -37 50 -25 13 20 12 30 -1
30 -6 0 -24 11 -41 25 -30 25 -48 32 -48 17z"/>
<path d="M3070 2106 c-43 -16 -42 -16 -87 -16 -23 0 -33 -4 -26 -8 7 -5 38 -8
68 -7 43 0 60 5 77 23 25 25 19 26 -32 8z"/>
<path d="M2875 2100 c-3 -5 -1 -10 4 -10 6 0 11 5 11 10 0 6 -2 10 -4 10 -3 0
-8 -4 -11 -10z"/>
<path d="M2910 2090 c0 -5 5 -10 10 -10 6 0 10 5 10 10 0 6 -4 10 -10 10 -5 0
-10 -4 -10 -10z"/>
<path d="M2108 1810 c-2 -6 -14 -12 -27 -15 -27 -5 -41 -21 -41 -47 0 -29 16
-28 39 2 32 44 46 38 46 -17 0 -28 5 -48 13 -50 7 -3 10 1 6 11 -7 19 -3 20
28 5 35 -16 78 4 78 35 0 27 -33 56 -63 56 -10 0 -31 7 -47 15 -17 9 -30 11
-32 5z m82 -60 c0 -12 -28 -25 -36 -17 -9 9 6 27 22 27 8 0 14 -5 14 -10z"/>
<path d="M2630 1751 c0 -5 9 -11 21 -14 29 -8 18 -32 -14 -30 -19 1 -24 -2
-20 -13 3 -8 12 -14 19 -14 8 0 17 -7 20 -15 11 -27 64 -18 133 22 8 5 -34 45
-61 59 -30 15 -98 19 -98 5z"/>
<path d="M2230 1466 c0 -2 7 -7 16 -10 8 -3 12 -2 9 4 -6 10 -25 14 -25 6z"/>
<path d="M2357 1464 c-11 -12 3 -24 29 -24 27 0 32 15 8 24 -20 8 -29 8 -37 0z"/>
<path d="M1855 1441 c-19 -10 -30 -22 -27 -32 2 -10 -8 -21 -28 -29 -30 -13
-56 -6 -32 9 9 6 9 13 0 33 -15 31 -54 35 -61 7 -3 -11 -19 -24 -36 -30 -19
-7 -31 -18 -31 -29 0 -24 -23 -42 -38 -30 -7 6 -10 7 -7 4 8 -11 -16 -34 -28
-27 -6 4 -8 -2 -5 -15 4 -12 2 -20 -2 -17 -10 6 -58 -49 -78 -92 -15 -31 -14
-35 13 -85 40 -74 95 -155 143 -208 l40 -45 44 41 c24 23 53 47 66 53 35 18
170 61 192 61 28 0 25 14 -15 81 -45 73 -70 178 -68 287 1 45 -2 82 -5 81 -4
-1 -21 -9 -37 -18z"/>
<path d="M3017 1328 c-8 -18 -21 -87 -28 -152 -12 -110 -16 -124 -51 -177 -20
-32 -45 -67 -55 -77 -10 -11 -26 -31 -35 -45 -15 -21 -80 -59 -168 -96 -21 -9
-18 -10 20 -5 81 11 120 13 120 5 0 -10 -41 -47 -60 -54 -10 -3 -7 -6 8 -6 19
-1 22 -5 17 -22 -8 -24 2 -21 41 14 13 11 32 25 43 31 11 6 62 36 113 67 127
77 204 98 255 71 19 -11 25 -8 57 32 20 23 36 46 36 49 0 9 -119 195 -157 246
-35 46 -99 118 -125 139 -13 11 -18 8 -31 -20z"/>
<path d="M2253 1246 c-45 -17 -50 -24 -17 -31 16 -3 45 -10 65 -15 74 -20 267
-8 232 13 -14 9 -204 47 -227 46 -12 -1 -35 -7 -53 -13z"/>
<path d="M842 333 c-7 -3 -19 -18 -27 -33 -52 -100 46 -199 122 -124 31 31 22
46 -10 16 -36 -34 -73 -28 -96 15 -16 32 -14 57 10 87 25 31 52 33 80 5 11
-11 25 -19 32 -16 7 2 1 14 -15 30 -26 26 -63 33 -96 20z"/>
<path d="M990 245 c0 -57 4 -95 10 -95 6 0 10 38 10 95 0 57 -4 95 -10 95 -6
0 -10 -38 -10 -95z"/>
<path d="M1420 305 c0 -33 -1 -35 -21 -24 -49 26 -99 -45 -70 -100 14 -26 56
-37 76 -21 10 9 15 9 15 1 0 -6 5 -11 10 -11 6 0 10 38 10 95 0 57 -4 95 -10
95 -5 0 -10 -16 -10 -35z m-12 -47 c7 -7 12 -24 12 -38 0 -51 -53 -70 -70 -25
-19 51 24 97 58 63z"/>
<path d="M1506 324 c-19 -18 -19 -20 -5 -46 9 -16 6 -24 -12 -44 -22 -23 -22
-27 -8 -52 16 -30 64 -41 98 -23 13 7 22 8 26 1 3 -5 14 -10 23 -10 15 0 15 1
0 16 -11 12 -14 27 -10 57 4 29 2 38 -6 33 -7 -4 -12 -16 -12 -27 0 -24 -12
-24 -34 0 -17 18 -17 20 3 40 12 12 21 25 21 30 0 16 -31 41 -50 41 -10 0 -26
-7 -34 -16z m52 -26 c-2 -13 -10 -23 -18 -23 -8 0 -16 10 -18 23 -3 17 2 22
18 22 16 0 21 -5 18 -22z m0 -89 c20 -24 21 -30 9 -35 -46 -17 -84 18 -57 51
17 20 21 19 48 -16z"/>
<path d="M1670 245 l0 -98 52 5 c64 7 88 31 88 93 0 60 -23 84 -87 92 l-53 6
0 -98z m107 48 c20 -26 16 -80 -7 -103 -11 -11 -33 -20 -50 -20 l-30 0 0 76 0
77 37 -6 c21 -4 44 -14 50 -24z"/>
<path d="M2134 317 c-23 -20 -27 -32 -27 -72 0 -40 4 -52 27 -72 61 -52 136
-12 136 72 0 84 -75 124 -136 72z m96 -17 c42 -42 15 -130 -40 -130 -35 0 -60
31 -60 75 0 66 57 98 100 55z"/>
<path d="M2580 245 l0 -95 39 0 c63 0 91 15 91 49 0 15 -7 34 -15 41 -11 9
-13 16 -5 24 17 17 11 55 -9 66 -11 5 -38 10 -60 10 l-41 0 0 -95z m88 66 c8
-5 12 -17 10 -27 -2 -14 -13 -20 -41 -22 -35 -3 -37 -2 -37 27 0 27 3 31 28
31 15 0 33 -4 40 -9z m8 -85 c28 -22 7 -50 -40 -54 -35 -3 -36 -2 -36 32 0 33
3 36 28 36 16 0 37 -6 48 -14z"/>
<path d="M2880 245 c0 -57 4 -95 10 -95 6 0 10 5 10 11 0 8 5 8 15 -1 20 -16
62 -5 76 21 29 55 -21 126 -70 100 -20 -11 -21 -9 -21 24 0 19 -4 35 -10 35
-6 0 -10 -38 -10 -95z m84 9 c19 -18 20 -38 6 -65 -21 -38 -70 -17 -70 31 0
46 34 64 64 34z"/>
<path d="M3026 332 c-3 -6 -1 -14 5 -17 15 -10 25 3 12 16 -7 7 -13 7 -17 1z"/>
<path d="M3444 328 c-42 -20 -56 -86 -29 -137 35 -69 145 -48 145 27 0 26 -3
29 -35 29 -19 0 -35 -4 -35 -9 0 -4 11 -8 25 -8 15 0 25 -6 25 -14 0 -22 -29
-46 -55 -46 -52 0 -81 73 -48 119 26 34 59 38 89 10 13 -12 27 -19 31 -15 12
12 -45 56 -70 55 -12 0 -32 -5 -43 -11z"/>
<path d="M1062 274 c-28 -20 -31 -83 -4 -107 40 -37 102 -4 102 53 0 33 -30
70 -58 70 -10 0 -28 -7 -40 -16z m70 -29 c22 -49 -25 -98 -60 -63 -15 15 -15
61 0 76 20 20 48 14 60 -13z"/>
<path d="M1190 233 c0 -71 8 -81 68 -80 l43 0 -3 66 c-4 80 -21 87 -28 11 -5
-51 -7 -55 -30 -55 -23 0 -25 4 -28 50 -5 75 -22 81 -22 8z"/>
<path d="M1862 274 c-16 -11 -22 -25 -22 -53 0 -61 50 -90 96 -57 25 19 12 31
-15 14 -15 -9 -26 -10 -38 -2 -33 21 -25 33 24 36 42 3 48 6 45 23 -3 22 -37
55 -56 55 -6 0 -22 -7 -34 -16z m56 -16 c20 -20 14 -28 -23 -28 -19 0 -35 4
-35 8 0 12 22 32 35 32 6 0 16 -5 23 -12z"/>
<path d="M1970 283 c0 -23 47 -133 56 -133 11 0 54 104 54 129 0 26 -19 -2
-36 -52 l-17 -52 -19 58 c-11 31 -24 57 -29 57 -5 0 -9 -3 -9 -7z"/>
<path d="M2307 283 c-11 -11 -8 -173 3 -173 6 0 10 14 10 30 0 28 2 30 21 20
73 -40 118 80 47 124 -13 8 -23 7 -39 -2 -16 -10 -24 -11 -29 -3 -3 6 -9 8
-13 4z m81 -25 c27 -27 10 -88 -24 -88 -34 0 -51 43 -29 76 17 26 35 30 53 12z"/>
<path d="M2468 279 c-32 -18 -22 -49 22 -66 22 -9 40 -20 40 -25 0 -16 -32
-21 -52 -9 -25 15 -35 7 -18 -14 16 -19 64 -20 80 0 19 23 7 47 -29 60 -19 6
-37 17 -39 23 -6 18 28 27 50 13 26 -16 34 -8 13 13 -19 18 -42 20 -67 5z"/>
<path d="M2754 276 c-24 -18 -13 -31 14 -15 23 14 52 6 52 -16 0 -10 -10 -15
-29 -15 -26 0 -61 -21 -61 -36 0 -36 53 -57 78 -32 9 9 12 9 12 0 0 -7 5 -12
10 -12 6 0 10 27 10 60 0 48 -4 61 -19 70 -27 14 -44 13 -67 -4z m66 -80 c0
-14 -21 -26 -46 -26 -8 0 -14 9 -14 20 0 16 7 20 30 20 19 0 30 -5 30 -14z"/>
<path d="M3030 221 c0 -41 4 -71 10 -71 6 0 10 28 10 64 0 36 -4 68 -10 71 -6
4 -10 -20 -10 -64z"/>
<path d="M3102 274 c-45 -32 -20 -124 34 -124 25 0 62 26 51 36 -4 4 -13 2
-19 -4 -17 -17 -55 -15 -62 4 -9 24 -9 24 39 24 41 0 45 2 45 24 0 24 -32 56
-55 56 -6 0 -21 -7 -33 -16z m56 -16 c20 -20 14 -28 -23 -28 -19 0 -35 4 -35
8 0 12 22 32 35 32 6 0 16 -5 23 -12z"/>
<path d="M3238 279 c-32 -18 -22 -49 22 -66 22 -9 39 -21 37 -27 -5 -16 -49
-20 -58 -5 -4 8 -11 10 -15 6 -11 -11 17 -37 40 -37 31 0 59 23 55 45 -2 10
-19 23 -39 30 -39 13 -47 38 -12 43 12 2 22 -1 22 -7 0 -6 7 -11 17 -11 14 0
14 2 -2 20 -20 22 -41 25 -67 9z"/>
<path d="M3594 281 c-2 -2 -4 -33 -4 -68 0 -49 3 -63 15 -63 12 0 15 13 15 56
0 47 3 57 20 61 31 8 24 22 -11 20 -17 -1 -32 -4 -35 -6z"/>
<path d="M3692 274 c-28 -20 -31 -83 -4 -107 40 -37 102 -4 102 53 0 33 -30
70 -58 70 -10 0 -28 -7 -40 -16z m70 -29 c22 -49 -25 -98 -60 -63 -7 7 -12 24
-12 38 0 51 52 69 72 25z"/>
<path d="M3817 284 c-13 -13 -7 -89 8 -111 12 -17 25 -22 55 -20 l40 1 0 70
c0 80 -17 81 -22 1 -3 -46 -5 -50 -28 -50 -23 0 -25 4 -28 50 -3 50 -12 71
-25 59z"/>
<path d="M3960 200 c0 -53 4 -90 10 -90 6 0 10 14 10 32 0 25 3 29 12 20 19
-19 55 -14 72 10 22 31 20 74 -4 98 -23 23 -33 24 -61 10 -13 -7 -19 -7 -19 0
0 5 -4 10 -10 10 -6 0 -10 -37 -10 -90z m92 45 c22 -49 -25 -98 -60 -63 -7 7
-12 24 -12 38 0 51 52 69 72 25z"/>
</g>
</svg>
